<svg width="34" height="33" fill="none" xmlns="http://www.w3.org/2000/svg"><path fill-rule="evenodd" clip-rule="evenodd" d="M21.334 15.95c0 2.533-2.179 4.587-4.866 4.587-2.688 0-4.868-2.054-4.868-4.587 0-2.536 2.18-4.59 4.868-4.59 2.687 0 4.866 2.054 4.866 4.59z" fill="#00BFF3"/><path fill-rule="evenodd" clip-rule="evenodd" d="M24 16.206c0 3.922-3.373 7.102-7.533 7.102s-7.534-3.18-7.534-7.102c0-.704.11-1.383.312-2.024H7.02v9.961c0 .515.434.937.963.937H24.86c.529 0 .962-.422.962-.936v-9.962H23.69c.201.64.31 1.32.31 2.024zm-2.019-4.711h2.739c.601 0 1.09-.478 1.09-1.062V7.892c0-.586-.489-1.062-1.09-1.062h-2.74c-.601 0-1.09.476-1.09 1.062v2.541c0 .584.489 1.062 1.09 1.062z" fill="#00BFF3"/><path fill-rule="evenodd" clip-rule="evenodd" d="M16.445 0C7.362 0 0 7.163 0 16.001 0 24.837 7.362 32 16.445 32c9.081 0 16.443-7.163 16.443-15.999C32.888 7.163 25.526 0 16.445 0zm9.006 27.79H7.437c-1.712 0-3.11-1.231-3.11-3.026V7.236c0-1.793 1.398-3.026 3.11-3.026h18.014c1.711 0 3.11 1.233 3.11 3.026v17.527c0 1.796-1.399 3.027-3.11 3.027z" fill="#00BFF3"/></svg>